<mxfile host="65bd71144e">
    <diagram id="XY_1cqUjdNDIYEa4Rq19" name="Page-1">
        <mxGraphModel dx="635" dy="510" grid="1" gridSize="10" guides="1" tooltips="1" connect="1" arrows="1" fold="1" page="1" pageScale="1" pageWidth="827" pageHeight="1169" math="0" shadow="0">
            <root>
                <mxCell id="0"/>
                <mxCell id="1" parent="0"/>
                <mxCell id="2" value="&lt;p style=&quot;margin: 0px ; margin-top: 4px ; text-align: center&quot;&gt;&lt;i&gt;&amp;lt;&amp;lt;abstract&amp;gt;&amp;gt;&lt;/i&gt;&lt;br&gt;&lt;b&gt;Pack&lt;/b&gt;&lt;/p&gt;&lt;hr size=&quot;1&quot;&gt;&lt;p style=&quot;margin: 0px ; margin-left: 4px&quot;&gt;- label: String&lt;/p&gt;&lt;p style=&quot;margin: 0px ; margin-left: 4px&quot;&gt;- cards: Card[]&lt;br&gt;&lt;/p&gt;&lt;hr size=&quot;1&quot;&gt;&lt;p style=&quot;margin: 0px ; margin-left: 4px&quot;&gt;&lt;i&gt;- setCards(): void&lt;/i&gt;&lt;br&gt;+ toString(): String&lt;/p&gt;" style="verticalAlign=top;align=left;overflow=fill;fontSize=12;fontFamily=Helvetica;html=1;fillColor=#f5f5f5;fontColor=#333333;strokeColor=#666666;" parent="1" vertex="1">
                    <mxGeometry x="30" y="50" width="190" height="130" as="geometry"/>
                </mxCell>
                <mxCell id="7" value="Classname" style="swimlane;fontStyle=1;align=center;verticalAlign=top;childLayout=stackLayout;horizontal=1;startSize=26;horizontalStack=0;resizeParent=1;resizeParentMax=0;resizeLast=0;collapsible=1;marginBottom=0;labelBackgroundColor=#FFFFFF;strokeColor=#666666;fillColor=#f5f5f5;fontColor=#333333;" vertex="1" parent="1">
                    <mxGeometry x="250" y="220" width="160" height="86" as="geometry"/>
                </mxCell>
                <mxCell id="8" value="+ field: type" style="text;strokeColor=#666666;fillColor=#f5f5f5;align=left;verticalAlign=top;spacingLeft=4;spacingRight=4;overflow=hidden;rotatable=0;points=[[0,0.5],[1,0.5]];portConstraint=eastwest;labelBackgroundColor=#FFFFFF;fontColor=#333333;" vertex="1" parent="7">
                    <mxGeometry y="26" width="160" height="26" as="geometry"/>
                </mxCell>
                <mxCell id="9" value="" style="line;strokeWidth=1;fillColor=#f5f5f5;align=left;verticalAlign=middle;spacingTop=-1;spacingLeft=3;spacingRight=3;rotatable=0;labelPosition=right;points=[];portConstraint=eastwest;labelBackgroundColor=#FFFFFF;fontColor=#333333;strokeColor=#666666;" vertex="1" parent="7">
                    <mxGeometry y="52" width="160" height="8" as="geometry"/>
                </mxCell>
                <mxCell id="10" value="+ method(type): type" style="text;strokeColor=#666666;fillColor=#f5f5f5;align=left;verticalAlign=top;spacingLeft=4;spacingRight=4;overflow=hidden;rotatable=0;points=[[0,0.5],[1,0.5]];portConstraint=eastwest;labelBackgroundColor=#FFFFFF;fontColor=#333333;" vertex="1" parent="7">
                    <mxGeometry y="60" width="160" height="26" as="geometry"/>
                </mxCell>
            </root>
        </mxGraphModel>
    </diagram>
</mxfile>